<svg xmlns="http://www.w3.org/2000/svg" xmlns:xlink="http://www.w3.org/1999/xlink" width="500" zoomAndPan="magnify" viewBox="0 0 375 374.999991" height="500" preserveAspectRatio="xMidYMid meet" version="1.0"><defs><g/><clipPath id="de17e5a095"><rect x="0" width="279" y="0" height="375"/></clipPath></defs><g transform="matrix(1, 0, 0, 1, 47, 0)"><g clip-path="url(#de17e5a095)"><g fill="#ffde59" fill-opacity="1"><g transform="translate(11.226245, 297.397874)"><g><path d="M -2.8125 -139.59375 L -2.8125 -199.828125 C -2.8125 -215.960938 1.03125 -230.597656 8.71875 -243.734375 C 16.414062 -256.867188 26.832031 -267.375 39.96875 -275.25 C 53.101562 -283.132812 67.738281 -287.078125 83.875 -287.078125 L 197.015625 -287.078125 C 202.265625 -287.078125 207.046875 -285.484375 211.359375 -282.296875 C 215.679688 -279.109375 218.78125 -275.265625 220.65625 -270.765625 L 241.484375 -249.9375 C 246.359375 -245.050781 248.796875 -239.609375 248.796875 -233.609375 L 248.796875 -197.015625 C 248.796875 -191.015625 246.453125 -185.570312 241.765625 -180.6875 C 237.078125 -175.8125 231.539062 -173.375 225.15625 -173.375 L 180.6875 -173.375 C 197.195312 -166.625 210.144531 -155.550781 219.53125 -140.15625 L 234.734375 -125.53125 C 242.609375 -117.644531 248.796875 -108.539062 253.296875 -98.21875 C 257.804688 -87.90625 260.0625 -76.742188 260.0625 -64.734375 L 260.0625 -42.21875 C 260.0625 -26.457031 256.304688 -12.101562 248.796875 0.84375 C 241.296875 13.789062 231.070312 24.109375 218.125 31.796875 C 205.175781 39.492188 190.820312 43.34375 175.0625 43.34375 L 56.296875 43.34375 C 50.285156 43.34375 44.84375 40.90625 39.96875 36.03125 L 18.578125 15.203125 C 14.078125 13.328125 10.320312 10.132812 7.3125 5.625 C 4.3125 1.125 2.8125 -3.5625 2.8125 -8.4375 L 2.8125 -45.03125 C 2.8125 -51.789062 5.34375 -57.703125 10.40625 -62.765625 C 15.476562 -67.828125 21.390625 -70.359375 28.140625 -70.359375 L 52.34375 -70.359375 C 49.71875 -71.109375 47.46875 -72.328125 45.59375 -74.015625 C 43.71875 -75.710938 41.84375 -77.5 39.96875 -79.375 L 19.703125 -99.640625 C 12.941406 -103.765625 7.5 -109.296875 3.375 -116.234375 C -0.75 -123.179688 -2.8125 -130.96875 -2.8125 -139.59375 Z M -2.8125 -139.59375 "/></g></g></g></g></g></svg>