<?xml version="1.0" encoding="UTF-8"?>
<svg version="1.1" xmlns="http://www.w3.org/2000/svg" width="500" height="500">
<path d="M0 0 C1.74014019 -0.00711319 3.48027807 -0.01481385 5.22041321 -0.02307129 C8.85054061 -0.03645423 12.48045067 -0.03811113 16.1105957 -0.03222656 C20.75098433 -0.02631264 25.39033315 -0.05702012 30.03052044 -0.09734344 C33.61745271 -0.12323834 37.20413438 -0.12609671 40.79114723 -0.12245178 C42.50190676 -0.12413895 44.21267837 -0.13374252 45.92334557 -0.15159607 C48.31638231 -0.17384113 50.70730962 -0.16406097 53.1003418 -0.14648438 C53.79817276 -0.15974762 54.49600372 -0.17301086 55.21498108 -0.18667603 C60.69602029 -0.09357573 64.08900924 1.82679015 67.98828125 5.46875 C69.36724096 7.43756891 70.70063863 9.43903222 71.98828125 11.46875 C74.43665511 14.13557569 77.10079192 16.58310351 79.7421875 19.05664062 C83.71104957 22.88199022 85.73187411 25.79960861 86.26293945 31.32788086 C86.29119995 34.6877103 86.31002716 38.04628488 86.30078125 41.40625 C86.31689453 42.57349609 86.33300781 43.74074219 86.34960938 44.94335938 C86.35573292 55.69017573 86.35573292 55.69017573 82.98828125 60.46875 C78.63060065 64.40129103 76.12123353 65.58021128 70.32421875 65.78515625 C69.20273437 65.82705078 68.08125 65.86894531 66.92578125 65.91210938 C65.75015625 65.95142578 64.57453125 65.99074219 63.36328125 66.03125 C62.17992187 66.07443359 60.9965625 66.11761719 59.77734375 66.16210938 C56.84777797 66.26842426 53.91812537 66.37045642 50.98828125 66.46875 C51.87906372 67.03033813 51.87906372 67.03033813 52.7878418 67.60327148 C57.35102561 70.54898329 61.24540098 73.36901447 64.80078125 77.53125 C65.50847656 78.34722656 66.21617187 79.16320312 66.9453125 80.00390625 C68.33784339 81.6839961 69.70289629 83.3871526 71.04296875 85.109375 C72.71689538 87.13959927 74.22209142 88.58358968 76.30078125 90.15625 C85.21302442 97.65324426 90.05867354 108.1290282 91.98828125 119.46875 C92.23627569 124.19529861 92.21945516 128.92384071 92.23828125 133.65625 C92.26921875 135.57147461 92.26921875 135.57147461 92.30078125 137.52539062 C92.35867354 151.60045474 88.46592663 164.28404134 78.73828125 174.84765625 C69.15220176 183.72761828 58.18932398 188.61009857 45.17797852 188.62988281 C44.39538666 188.63484772 43.6127948 188.63981262 42.80648804 188.64492798 C40.22254553 188.65951053 37.63866436 188.66634419 35.0546875 188.671875 C33.25634256 188.67762858 31.45799763 188.68338629 29.65965271 188.68914795 C25.89118159 188.69964605 22.12273173 188.70549687 18.35424805 188.70898438 C13.52769385 188.71447418 8.70142104 188.73851755 3.87495518 188.76695633 C0.1611804 188.78558496 -3.55252652 188.79078837 -7.26634407 188.79232025 C-9.04573166 188.79534554 -10.82511809 188.80336993 -12.60445976 188.81650543 C-15.09386496 188.8335748 -17.58258139 188.83168397 -20.07202148 188.82519531 C-20.80517075 188.8344101 -21.53832001 188.84362488 -22.29368591 188.8531189 C-29.2447873 188.79640995 -32.77100983 185.88910633 -37.69921875 181.34375 C-40.3773063 178.87846401 -43.05512062 176.43134085 -45.8125 174.0546875 C-46.70324219 173.28382813 -47.59398437 172.51296875 -48.51171875 171.71875 C-49.32640625 171.02265625 -50.14109375 170.3265625 -50.98046875 169.609375 C-56.50354514 163.78890219 -55.3790492 156.10223993 -55.38671875 148.59375 C-55.41121094 147.33949219 -55.43570313 146.08523438 -55.4609375 144.79296875 C-55.48309198 137.81430702 -55.33046371 133.07750969 -51.01171875 127.46875 C-46.82272522 123.66057406 -42.84049105 123.2885659 -37.32421875 122.90625 C-36.14472656 122.82246094 -34.96523437 122.73867187 -33.75 122.65234375 C-32.84636719 122.59175781 -31.94273437 122.53117187 -31.01171875 122.46875 C-33.34067865 120.11022323 -35.67537555 117.75746209 -38.01171875 115.40625 C-39.04196167 114.36561401 -39.04196167 114.36561401 -40.09301758 113.30395508 C-43.50088953 109.88559861 -46.89686101 106.6401955 -50.69921875 103.65625 C-55.46926436 99.56696461 -57.53438685 93.92521708 -58.38378906 87.77450562 C-58.53584782 84.91871583 -58.56660998 82.09016091 -58.54296875 79.23046875 C-58.54679565 78.18784378 -58.55062256 77.14521881 -58.55456543 76.07099915 C-58.55727109 73.87845894 -58.55000496 71.6858857 -58.53320312 69.4934082 C-58.51184071 66.17519439 -58.53301847 62.85916167 -58.55859375 59.54101562 C-58.5817526 42.19006273 -56.64832546 27.56041743 -44.38671875 14.28125 C-31.30134346 1.94503741 -17.15280954 -0.00855972 0 0 Z " fill="#1E1E1E" transform="translate(234.01171875,130.53125)"/>
<path d="M0 0 C1.65 0 3.3 0 5 0 C6.32 2.31 7.64 4.62 9 7 C9.99 4.69 10.98 2.38 12 0 C13.65 0 15.3 0 17 0 C15.85900371 3.48077209 14.71139816 6.95932886 13.5625 10.4375 C13.23701172 11.43072266 12.91152344 12.42394531 12.57617188 13.44726562 C12.10727539 14.86362305 12.10727539 14.86362305 11.62890625 16.30859375 C11.34088135 17.18314209 11.05285645 18.05769043 10.75610352 18.95874023 C10 21 10 21 9 22 C6.66702567 22.04092937 4.33294775 22.04241723 2 22 C2 20.68 2 19.36 2 18 C3.32 18 4.64 18 6 18 C4.02 12.06 2.04 6.12 0 0 Z " fill="#D8D6D2" transform="translate(294,159)"/>
<path d="M0 0 C4.01556315 0.83657566 5.51884918 2.41409894 8 5.625 C8 6.945 8 8.265 8 9.625 C4.37 9.625 0.74 9.625 -3 9.625 C-2.67 10.285 -2.34 10.945 -2 11.625 C0.97 11.625 3.94 11.625 7 11.625 C5 15.625 5 15.625 3 16.625 C-1.05263598 17.16535146 -2.53730231 16.96699395 -5.875 14.5 C-8 11.625 -8 11.625 -8.625 8.625 C-7.58039389 3.61089068 -5.01410932 1.04460611 0 0 Z " fill="#CFCDC8" transform="translate(259,158.375)"/>
<path d="M0 0 C4.01556315 0.83657566 5.51884918 2.41409894 8 5.625 C8 6.945 8 8.265 8 9.625 C4.37 9.625 0.74 9.625 -3 9.625 C-2.67 10.285 -2.34 10.945 -2 11.625 C0.97 11.625 3.94 11.625 7 11.625 C5 15.625 5 15.625 3 16.625 C-1.05263598 17.16535146 -2.53730231 16.96699395 -5.875 14.5 C-8 11.625 -8 11.625 -8.625 8.625 C-7.58039389 3.61089068 -5.01410932 1.04460611 0 0 Z " fill="#CFCDC8" transform="translate(241,158.375)"/>
<path d="M0 0 C11.37117904 -0.36681223 11.37117904 -0.36681223 13.875 1.09375 C15.56870427 3.96363779 15.28535186 6.39315417 15.1875 9.6875 C15.16042969 10.86699219 15.13335937 12.04648438 15.10546875 13.26171875 C15.07066406 14.16535156 15.03585937 15.06898438 15 16 C13.35 16 11.7 16 10 16 C10 12.37 10 8.74 10 5 C8.68 5.33 7.36 5.66 6 6 C5.67 9.3 5.34 12.6 5 16 C3.35 16 1.7 16 0 16 C0 10.72 0 5.44 0 0 Z " fill="#D3D1CC" transform="translate(269,159)"/>
<path d="M0 0 C2.375 1.375 2.375 1.375 4 3 C4 3.66 4 4.32 4 5 C1.36 4.67 -1.28 4.34 -4 4 C-4 4.66 -4 5.32 -4 6 C-2.865625 6.144375 -1.73125 6.28875 -0.5625 6.4375 C3 7 3 7 4 8 C4.1875 10.9375 4.1875 10.9375 4 14 C2 16 2 16 -1.9375 16.3125 C-4.67005991 16.24802944 -5.70882266 16.20018442 -8 14.625 C-9 13 -9 13 -9 11 C-6.03 11.33 -3.06 11.66 0 12 C0 11.34 0 10.68 0 10 C-1.11375 9.87625 -2.2275 9.7525 -3.375 9.625 C-7 9 -7 9 -9 7 C-9.3125 4.5 -9.3125 4.5 -9 2 C-5.51131349 -0.32579101 -4.10281481 -0.41865457 0 0 Z " fill="#D6D4CF" transform="translate(197,159)"/>
<path d="M0 0 C2.875 1.875 2.875 1.875 5 4 C5 4.66 5 5.32 5 6 C1.7 6 -1.6 6 -5 6 C-5 7.32 -5 8.64 -5 10 C-3.35 10.33 -1.7 10.66 0 11 C0 10.34 0 9.68 0 9 C1.65 9 3.3 9 5 9 C4.63802104 11.62434747 4.17343943 12.82013689 2.3125 14.75 C-0.7341375 16.39683108 -2.58157468 16.49852036 -6 16 C-8.375 14.5 -8.375 14.5 -10 12 C-10.81753559 7.92900647 -10.65416433 5.00640667 -8.375 1.5 C-5.25991849 -0.4674199 -3.62829011 -0.5923739 0 0 Z " fill="#D7D5D0" transform="translate(214,159)"/>
<path d="M0 0 C8 0 16 0 24 0 C24 1.65 24 3.3 24 5 C24.99 5.33 25.98 5.66 27 6 C24.69 6 22.38 6 20 6 C19.67 5.34 19.34 4.68 19 4 C18.67 4.66 18.34 5.32 18 6 C14 6 14 6 11.5625 5.4375 C8.71569218 4.95145964 6.78827702 5.3396186 4 6 C3.01 6 2.02 6 1 6 C0.67 4.02 0.34 2.04 0 0 Z " fill="#BBB9B5" transform="translate(259,178)"/>
<path d="M0 0 C3.3 0 6.6 0 10 0 C10 1.65 10 3.3 10 5 C8.35 5.33 6.7 5.66 5 6 C4.67 9.3 4.34 12.6 4 16 C2.68 16 1.36 16 0 16 C0 10.72 0 5.44 0 0 Z " fill="#DDDBD6" transform="translate(222,159)"/>
<path d="M0 0 C1.32 0 2.64 0 4 0 C4 7.26 4 14.52 4 22 C2.68 22 1.36 22 0 22 C0 14.74 0 7.48 0 0 Z " fill="#E4E2DD" transform="translate(288,153)"/>
<path d="M0 0 C1.1446875 0.2784375 1.1446875 0.2784375 2.3125 0.5625 C5.08967375 1.22819173 5.08967375 1.22819173 8 0 C8 1.65 8 3.3 8 5 C8.66 5 9.32 5 10 5 C10 3.35 10 1.7 10 0 C10.66 0 11.32 0 12 0 C12 1.65 12 3.3 12 5 C7.3008219 6.01603851 3.6991781 6.01603851 -1 5 C-0.67 3.35 -0.34 1.7 0 0 Z " fill="#979592" transform="translate(239,178)"/>
<path d="M0 0 C9.41002278 -0.3690205 9.41002278 -0.3690205 14 2 C13.67 2.99 13.34 3.98 13 5 C8.98851849 6.3371605 5.22626309 6 1 6 C0.67 4.02 0.34 2.04 0 0 Z " fill="#92908D" transform="translate(259,178)"/>
<path d="M0 0 C2.97 0 5.94 0 9 0 C8.67 1.98 8.34 3.96 8 6 C5.69 6 3.38 6 1 6 C0.67 4.02 0.34 2.04 0 0 Z " fill="#BBB9B5" transform="translate(196,178)"/>
<path d="M0 0 C1.65 0 3.3 0 5 0 C5.38218767 1.65614657 5.71395102 3.32457024 6 5 C5 6 5 6 2.4375 6.0625 C1.2309375 6.0315625 1.2309375 6.0315625 0 6 C0 4.02 0 2.04 0 0 Z " fill="#A5A3A0" transform="translate(287,178)"/>
<path d="M0 0 C0.66 0 1.32 0 2 0 C2 0.66 2 1.32 2 2 C2.66 2 3.32 2 4 2 C4 1.34 4 0.68 4 0 C4.66 0 5.32 0 6 0 C6 1.98 6 3.96 6 6 C5.34 6 4.68 6 4 6 C4 5.01 4 4.02 4 3 C3.34 3 2.68 3 2 3 C2 3.99 2 4.98 2 6 C1.34 6 0.68 6 0 6 C0 4.02 0 2.04 0 0 Z " fill="#BFBDB9" transform="translate(224,178)"/>
<path d="M0 0 C0.66 0 1.32 0 2 0 C2 1.65 2 3.3 2 5 C2.66 5 3.32 5 4 5 C4 3.35 4 1.7 4 0 C4.66 0 5.32 0 6 0 C6 1.65 6 3.3 6 5 C4.35 5.33 2.7 5.66 1 6 C-0.0625 4.125 -0.0625 4.125 -1 2 C-0.67 1.34 -0.34 0.68 0 0 Z " fill="#B2B0AC" transform="translate(245,178)"/>
<path d="M0 0 C0.99 0 1.98 0 3 0 C3.33 1.98 3.66 3.96 4 6 C2.02 6 0.04 6 -2 6 C-1.34 4.02 -0.68 2.04 0 0 Z " fill="#B4B3AF" transform="translate(207,178)"/>
<path d="M0 0 C1.98 0 3.96 0 6 0 C5.34 1.98 4.68 3.96 4 6 C3.01 6 2.02 6 1 6 C0.67 4.02 0.34 2.04 0 0 Z " fill="#BBB9B5" transform="translate(259,178)"/>
<path d="M0 0 C1.65 0 3.3 0 5 0 C5 1.98 5 3.96 5 6 C4.34 6 3.68 6 3 6 C3 5.01 3 4.02 3 3 C2.34 3 1.68 3 1 3 C0.67 3.99 0.34 4.98 0 6 C0 4.02 0 2.04 0 0 Z " fill="#C0BEBA" transform="translate(252,178)"/>
<path d="M0 0 C1.98 0 3.96 0 6 0 C5.34 1.98 4.68 3.96 4 6 C3.34 6 2.68 6 2 6 C1.34 4.02 0.68 2.04 0 0 Z " fill="#B9B8B4" transform="translate(232,178)"/>
</svg>
